<svg id="Layer_1" data-name="Layer 1" xmlns="http://www.w3.org/2000/svg" viewBox="0 0 1224 1224"><defs><style>.cls-1{fill:#4773b8;}</style></defs><path class="cls-1" d="M1132.67,356.87V956.63a122.4,122.4,0,0,1-122.4,122.4H887.87V589.43H643.07v367.2a366.86,366.86,0,0,0,367.2,367.2h1.29c66.75-.23,121.11,53.49,121.11,120.24v124.56h-122.4a615.39,615.39,0,0,1-122.4-12.24,609.15,609.15,0,0,1-244.8-110.12,615.46,615.46,0,0,1-122.44-122.44,609.81,609.81,0,0,1-122.36-367.2v-612h612A615.39,615.39,0,0,1,1132.67,356.87Z" transform="translate(-398.27 -344.63)"/><path class="cls-1" d="M1622.27,1446.23a122.4,122.4,0,0,1-244.8,0v0a122.41,122.41,0,0,1,122.4-122.4h.05A122.4,122.4,0,0,1,1622.27,1446.23Z" transform="translate(-398.27 -344.63)"/></svg>